<mxfile host="app.diagrams.net" modified="2023-03-07T02:15:17.837Z" agent="5.0 (Windows)" etag="5-v_rYFK5URtTfreWTr-" version="21.0.2" type="github">
  <diagram name="PÃ¡gina-1" id="k9wyMcpVs6OFAAXS8L6B">
    <mxGraphModel dx="880" dy="1611" grid="1" gridSize="10" guides="1" tooltips="1" connect="1" arrows="1" fold="1" page="1" pageScale="1" pageWidth="827" pageHeight="1169" math="0" shadow="0">
      <root>
        <mxCell id="0" />
        <mxCell id="1" parent="0" />
        <mxCell id="YredDdJyoUO70uSYRBnG-67" style="edgeStyle=orthogonalEdgeStyle;rounded=0;orthogonalLoop=1;jettySize=auto;html=1;exitX=0.5;exitY=1;exitDx=0;exitDy=0;exitPerimeter=0;entryX=0.538;entryY=0.114;entryDx=0;entryDy=0;entryPerimeter=0;" edge="1" parent="1" source="YredDdJyoUO70uSYRBnG-41" target="YredDdJyoUO70uSYRBnG-43">
          <mxGeometry relative="1" as="geometry" />
        </mxCell>
        <mxCell id="YredDdJyoUO70uSYRBnG-41" value="Inicio" style="strokeWidth=2;html=1;shape=mxgraph.flowchart.start_1;whiteSpace=wrap;" vertex="1" parent="1">
          <mxGeometry x="100" y="-1150" width="120" height="70" as="geometry" />
        </mxCell>
        <mxCell id="YredDdJyoUO70uSYRBnG-44" style="edgeStyle=orthogonalEdgeStyle;rounded=0;orthogonalLoop=1;jettySize=auto;html=1;exitX=1;exitY=0.5;exitDx=0;exitDy=0;" edge="1" parent="1" source="YredDdJyoUO70uSYRBnG-43" target="YredDdJyoUO70uSYRBnG-45">
          <mxGeometry relative="1" as="geometry">
            <mxPoint x="480" y="-235" as="targetPoint" />
          </mxGeometry>
        </mxCell>
        <mxCell id="YredDdJyoUO70uSYRBnG-43" value="Saldo" style="html=1;strokeWidth=2;shape=manualInput;whiteSpace=wrap;rounded=1;size=26;arcSize=11;" vertex="1" parent="1">
          <mxGeometry x="90" y="-1000" width="130" height="70" as="geometry" />
        </mxCell>
        <mxCell id="YredDdJyoUO70uSYRBnG-45" value="Saldo Inicial: &quot;+ Saldo" style="strokeWidth=2;html=1;shape=mxgraph.flowchart.display;whiteSpace=wrap;" vertex="1" parent="1">
          <mxGeometry x="380" y="-1012.5" width="206" height="95" as="geometry" />
        </mxCell>
        <mxCell id="YredDdJyoUO70uSYRBnG-54" value="" style="endArrow=classic;html=1;rounded=0;exitX=0.5;exitY=1;exitDx=0;exitDy=0;exitPerimeter=0;" edge="1" parent="1" source="YredDdJyoUO70uSYRBnG-45" target="YredDdJyoUO70uSYRBnG-65">
          <mxGeometry width="50" height="50" relative="1" as="geometry">
            <mxPoint x="493" y="-880" as="sourcePoint" />
            <mxPoint x="325" y="-116.41666666666674" as="targetPoint" />
            <Array as="points">
              <mxPoint x="480" y="-760" />
              <mxPoint x="240" y="-760" />
            </Array>
          </mxGeometry>
        </mxCell>
        <mxCell id="YredDdJyoUO70uSYRBnG-68" style="edgeStyle=orthogonalEdgeStyle;rounded=0;orthogonalLoop=1;jettySize=auto;html=1;exitX=0.5;exitY=1;exitDx=0;exitDy=0;" edge="1" parent="1" source="YredDdJyoUO70uSYRBnG-65" target="YredDdJyoUO70uSYRBnG-69">
          <mxGeometry relative="1" as="geometry">
            <mxPoint x="160" y="-670" as="targetPoint" />
          </mxGeometry>
        </mxCell>
        <mxCell id="YredDdJyoUO70uSYRBnG-65" value="Encerrar: &#39;n&#39;" style="rounded=1;whiteSpace=wrap;html=1;absoluteArcSize=1;arcSize=14;strokeWidth=2;" vertex="1" parent="1">
          <mxGeometry x="95" y="-800" width="130" height="60" as="geometry" />
        </mxCell>
        <mxCell id="YredDdJyoUO70uSYRBnG-70" style="edgeStyle=orthogonalEdgeStyle;rounded=0;orthogonalLoop=1;jettySize=auto;html=1;exitX=0.5;exitY=1;exitDx=0;exitDy=0;exitPerimeter=0;" edge="1" parent="1" source="YredDdJyoUO70uSYRBnG-69" target="YredDdJyoUO70uSYRBnG-71">
          <mxGeometry relative="1" as="geometry">
            <mxPoint x="160" y="-430" as="targetPoint" />
          </mxGeometry>
        </mxCell>
        <mxCell id="YredDdJyoUO70uSYRBnG-103" style="edgeStyle=orthogonalEdgeStyle;rounded=0;orthogonalLoop=1;jettySize=auto;html=1;exitX=1;exitY=0.5;exitDx=0;exitDy=0;exitPerimeter=0;entryX=1;entryY=0.375;entryDx=0;entryDy=0;entryPerimeter=0;" edge="1" parent="1" source="YredDdJyoUO70uSYRBnG-69" target="YredDdJyoUO70uSYRBnG-97">
          <mxGeometry relative="1" as="geometry">
            <mxPoint x="260" y="900" as="targetPoint" />
            <Array as="points">
              <mxPoint x="800" y="-584" />
              <mxPoint x="800" y="900" />
            </Array>
          </mxGeometry>
        </mxCell>
        <mxCell id="YredDdJyoUO70uSYRBnG-69" value="Encerrar: &#39;n&#39;" style="strokeWidth=2;html=1;shape=mxgraph.flowchart.decision;whiteSpace=wrap;" vertex="1" parent="1">
          <mxGeometry x="65" y="-676" width="190" height="184" as="geometry" />
        </mxCell>
        <mxCell id="YredDdJyoUO70uSYRBnG-74" style="edgeStyle=orthogonalEdgeStyle;rounded=0;orthogonalLoop=1;jettySize=auto;html=1;exitX=0.5;exitY=1;exitDx=0;exitDy=0;entryX=0.5;entryY=0.111;entryDx=0;entryDy=0;entryPerimeter=0;" edge="1" parent="1" source="YredDdJyoUO70uSYRBnG-71" target="YredDdJyoUO70uSYRBnG-72">
          <mxGeometry relative="1" as="geometry" />
        </mxCell>
        <mxCell id="YredDdJyoUO70uSYRBnG-71" value="Tipo de Entrada" style="html=1;strokeWidth=2;shape=manualInput;whiteSpace=wrap;rounded=1;size=26;arcSize=11;" vertex="1" parent="1">
          <mxGeometry x="90" y="-430" width="140" height="80" as="geometry" />
        </mxCell>
        <mxCell id="YredDdJyoUO70uSYRBnG-75" style="edgeStyle=orthogonalEdgeStyle;rounded=0;orthogonalLoop=1;jettySize=auto;html=1;exitX=0.5;exitY=1;exitDx=0;exitDy=0;" edge="1" parent="1" source="YredDdJyoUO70uSYRBnG-72" target="YredDdJyoUO70uSYRBnG-76">
          <mxGeometry relative="1" as="geometry">
            <mxPoint x="160" y="-120" as="targetPoint" />
          </mxGeometry>
        </mxCell>
        <mxCell id="YredDdJyoUO70uSYRBnG-72" value="Quantidade" style="html=1;strokeWidth=2;shape=manualInput;whiteSpace=wrap;rounded=1;size=26;arcSize=11;" vertex="1" parent="1">
          <mxGeometry x="90" y="-300" width="140" height="90" as="geometry" />
        </mxCell>
        <mxCell id="YredDdJyoUO70uSYRBnG-77" style="edgeStyle=orthogonalEdgeStyle;rounded=0;orthogonalLoop=1;jettySize=auto;html=1;exitX=1;exitY=0.5;exitDx=0;exitDy=0;exitPerimeter=0;" edge="1" parent="1" source="YredDdJyoUO70uSYRBnG-76" target="YredDdJyoUO70uSYRBnG-78">
          <mxGeometry relative="1" as="geometry">
            <mxPoint x="330" y="-30" as="targetPoint" />
          </mxGeometry>
        </mxCell>
        <mxCell id="YredDdJyoUO70uSYRBnG-81" style="edgeStyle=orthogonalEdgeStyle;rounded=0;orthogonalLoop=1;jettySize=auto;html=1;exitX=0.5;exitY=1;exitDx=0;exitDy=0;exitPerimeter=0;" edge="1" parent="1" source="YredDdJyoUO70uSYRBnG-76" target="YredDdJyoUO70uSYRBnG-82">
          <mxGeometry relative="1" as="geometry">
            <mxPoint x="160" y="200" as="targetPoint" />
          </mxGeometry>
        </mxCell>
        <mxCell id="YredDdJyoUO70uSYRBnG-76" value="Tipo Entrada = 1" style="strokeWidth=2;html=1;shape=mxgraph.flowchart.decision;whiteSpace=wrap;" vertex="1" parent="1">
          <mxGeometry x="80" y="-110" width="160" height="160" as="geometry" />
        </mxCell>
        <mxCell id="YredDdJyoUO70uSYRBnG-79" style="edgeStyle=orthogonalEdgeStyle;rounded=0;orthogonalLoop=1;jettySize=auto;html=1;exitX=1;exitY=0.5;exitDx=0;exitDy=0;" edge="1" parent="1" source="YredDdJyoUO70uSYRBnG-78" target="YredDdJyoUO70uSYRBnG-80">
          <mxGeometry relative="1" as="geometry">
            <mxPoint x="600" y="-30" as="targetPoint" />
          </mxGeometry>
        </mxCell>
        <mxCell id="YredDdJyoUO70uSYRBnG-78" value="Saldo = saldo + quantidade" style="rounded=1;whiteSpace=wrap;html=1;absoluteArcSize=1;arcSize=14;strokeWidth=2;" vertex="1" parent="1">
          <mxGeometry x="320" y="-65" width="170" height="70" as="geometry" />
        </mxCell>
        <mxCell id="YredDdJyoUO70uSYRBnG-80" value="&quot;Entrada: &quot; + quantidade" style="strokeWidth=2;html=1;shape=mxgraph.flowchart.display;whiteSpace=wrap;" vertex="1" parent="1">
          <mxGeometry x="570" y="-65" width="180" height="70" as="geometry" />
        </mxCell>
        <mxCell id="YredDdJyoUO70uSYRBnG-84" style="edgeStyle=orthogonalEdgeStyle;rounded=0;orthogonalLoop=1;jettySize=auto;html=1;exitX=1;exitY=0.5;exitDx=0;exitDy=0;exitPerimeter=0;" edge="1" parent="1" source="YredDdJyoUO70uSYRBnG-82" target="YredDdJyoUO70uSYRBnG-85">
          <mxGeometry relative="1" as="geometry">
            <mxPoint x="310" y="260" as="targetPoint" />
          </mxGeometry>
        </mxCell>
        <mxCell id="YredDdJyoUO70uSYRBnG-91" style="edgeStyle=orthogonalEdgeStyle;rounded=0;orthogonalLoop=1;jettySize=auto;html=1;exitX=0.5;exitY=1;exitDx=0;exitDy=0;exitPerimeter=0;" edge="1" parent="1" source="YredDdJyoUO70uSYRBnG-82" target="YredDdJyoUO70uSYRBnG-92">
          <mxGeometry relative="1" as="geometry">
            <mxPoint x="160" y="620" as="targetPoint" />
          </mxGeometry>
        </mxCell>
        <mxCell id="YredDdJyoUO70uSYRBnG-82" value="Tipo Entrada = 2" style="strokeWidth=2;html=1;shape=mxgraph.flowchart.decision;whiteSpace=wrap;" vertex="1" parent="1">
          <mxGeometry x="75" y="160" width="170" height="160" as="geometry" />
        </mxCell>
        <mxCell id="YredDdJyoUO70uSYRBnG-83" value="" style="endArrow=classic;html=1;rounded=0;exitX=0.606;exitY=1;exitDx=0;exitDy=0;exitPerimeter=0;" edge="1" parent="1" source="YredDdJyoUO70uSYRBnG-80">
          <mxGeometry width="50" height="50" relative="1" as="geometry">
            <mxPoint x="420" y="170" as="sourcePoint" />
            <mxPoint x="170" y="80" as="targetPoint" />
            <Array as="points">
              <mxPoint x="680" y="80" />
            </Array>
          </mxGeometry>
        </mxCell>
        <mxCell id="YredDdJyoUO70uSYRBnG-86" style="edgeStyle=orthogonalEdgeStyle;rounded=0;orthogonalLoop=1;jettySize=auto;html=1;exitX=1;exitY=0.5;exitDx=0;exitDy=0;exitPerimeter=0;" edge="1" parent="1" source="YredDdJyoUO70uSYRBnG-85" target="YredDdJyoUO70uSYRBnG-87">
          <mxGeometry relative="1" as="geometry">
            <mxPoint x="540" y="240" as="targetPoint" />
          </mxGeometry>
        </mxCell>
        <mxCell id="YredDdJyoUO70uSYRBnG-104" style="edgeStyle=orthogonalEdgeStyle;rounded=0;orthogonalLoop=1;jettySize=auto;html=1;exitX=0.5;exitY=1;exitDx=0;exitDy=0;exitPerimeter=0;entryX=0.567;entryY=0;entryDx=0;entryDy=0;entryPerimeter=0;" edge="1" parent="1" source="YredDdJyoUO70uSYRBnG-85" target="YredDdJyoUO70uSYRBnG-90">
          <mxGeometry relative="1" as="geometry" />
        </mxCell>
        <mxCell id="YredDdJyoUO70uSYRBnG-85" value="Saldo &amp;gt;= quantidade" style="strokeWidth=2;html=1;shape=mxgraph.flowchart.decision;whiteSpace=wrap;" vertex="1" parent="1">
          <mxGeometry x="320" y="155" width="170" height="170" as="geometry" />
        </mxCell>
        <mxCell id="YredDdJyoUO70uSYRBnG-88" style="edgeStyle=orthogonalEdgeStyle;rounded=0;orthogonalLoop=1;jettySize=auto;html=1;exitX=0.5;exitY=1;exitDx=0;exitDy=0;" edge="1" parent="1" source="YredDdJyoUO70uSYRBnG-87" target="YredDdJyoUO70uSYRBnG-89">
          <mxGeometry relative="1" as="geometry">
            <mxPoint x="595" y="400" as="targetPoint" />
            <Array as="points">
              <mxPoint x="600" y="340" />
              <mxPoint x="600" y="340" />
            </Array>
          </mxGeometry>
        </mxCell>
        <mxCell id="YredDdJyoUO70uSYRBnG-87" value="Saldo = saldo - quantidade" style="rounded=1;whiteSpace=wrap;html=1;absoluteArcSize=1;arcSize=14;strokeWidth=2;" vertex="1" parent="1">
          <mxGeometry x="520" y="205" width="160" height="70" as="geometry" />
        </mxCell>
        <mxCell id="YredDdJyoUO70uSYRBnG-89" value="&quot;Saida: &quot; + quantidade" style="strokeWidth=2;html=1;shape=mxgraph.flowchart.display;whiteSpace=wrap;" vertex="1" parent="1">
          <mxGeometry x="511.25" y="380" width="167.5" height="70" as="geometry" />
        </mxCell>
        <mxCell id="YredDdJyoUO70uSYRBnG-90" value="&quot;Saldo Insuficiente&quot;" style="strokeWidth=2;html=1;shape=mxgraph.flowchart.display;whiteSpace=wrap;" vertex="1" parent="1">
          <mxGeometry x="310" y="380" width="167.5" height="70" as="geometry" />
        </mxCell>
        <mxCell id="YredDdJyoUO70uSYRBnG-95" style="edgeStyle=orthogonalEdgeStyle;rounded=0;orthogonalLoop=1;jettySize=auto;html=1;exitX=0.5;exitY=1;exitDx=0;exitDy=0;exitPerimeter=0;" edge="1" parent="1" source="YredDdJyoUO70uSYRBnG-92" target="YredDdJyoUO70uSYRBnG-96">
          <mxGeometry relative="1" as="geometry">
            <mxPoint x="160" y="720" as="targetPoint" />
          </mxGeometry>
        </mxCell>
        <mxCell id="YredDdJyoUO70uSYRBnG-92" value="Saldo" style="strokeWidth=2;html=1;shape=mxgraph.flowchart.display;whiteSpace=wrap;" vertex="1" parent="1">
          <mxGeometry x="75" y="600" width="170" height="70" as="geometry" />
        </mxCell>
        <mxCell id="YredDdJyoUO70uSYRBnG-93" value="" style="endArrow=classic;html=1;rounded=0;exitX=0.5;exitY=1;exitDx=0;exitDy=0;exitPerimeter=0;" edge="1" parent="1" source="YredDdJyoUO70uSYRBnG-90">
          <mxGeometry width="50" height="50" relative="1" as="geometry">
            <mxPoint x="420" y="520" as="sourcePoint" />
            <mxPoint x="170" y="480" as="targetPoint" />
            <Array as="points">
              <mxPoint x="394" y="480" />
            </Array>
          </mxGeometry>
        </mxCell>
        <mxCell id="YredDdJyoUO70uSYRBnG-94" value="" style="endArrow=classic;html=1;rounded=0;" edge="1" parent="1">
          <mxGeometry width="50" height="50" relative="1" as="geometry">
            <mxPoint x="600" y="450" as="sourcePoint" />
            <mxPoint x="170" y="520" as="targetPoint" />
            <Array as="points">
              <mxPoint x="600" y="520" />
            </Array>
          </mxGeometry>
        </mxCell>
        <mxCell id="YredDdJyoUO70uSYRBnG-96" value="Encerra? (n/s)" style="html=1;strokeWidth=2;shape=manualInput;whiteSpace=wrap;rounded=1;size=26;arcSize=11;" vertex="1" parent="1">
          <mxGeometry x="75" y="720" width="170" height="80" as="geometry" />
        </mxCell>
        <mxCell id="YredDdJyoUO70uSYRBnG-100" style="edgeStyle=orthogonalEdgeStyle;rounded=0;orthogonalLoop=1;jettySize=auto;html=1;exitX=0.5;exitY=1;exitDx=0;exitDy=0;exitPerimeter=0;" edge="1" parent="1" source="YredDdJyoUO70uSYRBnG-97" target="YredDdJyoUO70uSYRBnG-101">
          <mxGeometry relative="1" as="geometry">
            <mxPoint x="160" y="1030" as="targetPoint" />
          </mxGeometry>
        </mxCell>
        <mxCell id="YredDdJyoUO70uSYRBnG-97" value="&quot;Sistema Encerrado&quot;" style="strokeWidth=2;html=1;shape=mxgraph.flowchart.display;whiteSpace=wrap;" vertex="1" parent="1">
          <mxGeometry x="70" y="870" width="180" height="80" as="geometry" />
        </mxCell>
        <mxCell id="YredDdJyoUO70uSYRBnG-98" value="" style="endArrow=classic;html=1;rounded=0;exitX=-0.018;exitY=0.65;exitDx=0;exitDy=0;exitPerimeter=0;entryX=0;entryY=0.5;entryDx=0;entryDy=0;entryPerimeter=0;" edge="1" parent="1" source="YredDdJyoUO70uSYRBnG-96" target="YredDdJyoUO70uSYRBnG-69">
          <mxGeometry width="50" height="50" relative="1" as="geometry">
            <mxPoint x="420" y="700" as="sourcePoint" />
            <mxPoint x="60" y="-590" as="targetPoint" />
            <Array as="points">
              <mxPoint x="40" y="772" />
              <mxPoint x="30" y="-30" />
              <mxPoint x="40" y="-584" />
            </Array>
          </mxGeometry>
        </mxCell>
        <mxCell id="YredDdJyoUO70uSYRBnG-101" value="Fim" style="strokeWidth=2;html=1;shape=mxgraph.flowchart.terminator;whiteSpace=wrap;" vertex="1" parent="1">
          <mxGeometry x="75" y="1030" width="170" height="70" as="geometry" />
        </mxCell>
      </root>
    </mxGraphModel>
  </diagram>
</mxfile>
